<?xml version="1.0" encoding="UTF-8"?>
<svg width="800px" height="600px" viewBox="0 0 800 600" version="1.1" xmlns="http://www.w3.org/2000/svg">
    <defs>
        <linearGradient x1="50%" y1="0%" x2="50%" y2="100%" id="linearGradient-1">
            <stop stop-color="#6C63FF" offset="0%"></stop>
            <stop stop-color="#3F3D56" offset="100%"></stop>
        </linearGradient>
    </defs>
    <g stroke="none" stroke-width="1" fill="none" fill-rule="evenodd">
        <!-- Laptop Base -->
        <path d="M600,400 L200,400 L150,450 L650,450 L600,400" fill="#3F3D56"/>
        <!-- Laptop Screen -->
        <rect x="200" y="200" width="400" height="200" fill="#FFFFFF" stroke="#3F3D56" stroke-width="2"/>
        <!-- Screen Content -->
        <rect x="220" y="220" width="360" height="20" fill="#E6E6E6"/>
        <rect x="220" y="250" width="180" height="120" fill="#6C63FF" opacity="0.3"/>
        <rect x="420" y="250" width="140" height="20" fill="#E6E6E6"/>
        <rect x="420" y="280" width="140" height="20" fill="#E6E6E6"/>
        <rect x="420" y="310" width="140" height="20" fill="#E6E6E6"/>
        <!-- Floating Elements -->
        <circle cx="150" cy="150" r="20" fill="#6C63FF" opacity="0.3"/>
        <circle cx="650" cy="250" r="15" fill="#6C63FF" opacity="0.3"/>
        <circle cx="200" cy="350" r="10" fill="#6C63FF" opacity="0.3"/>
        <circle cx="600" cy="150" r="25" fill="#6C63FF" opacity="0.3"/>
        <!-- Books Stack -->
        <rect x="100" y="300" width="60" height="15" fill="#6C63FF"/>
        <rect x="95" y="315" width="70" height="15" fill="#3F3D56"/>
        <rect x="90" y="330" width="80" height="15" fill="#6C63FF"/>
        <!-- Graduation Cap -->
        <path d="M650,300 L700,320 L650,340 L600,320 Z" fill="#6C63FF"/>
        <path d="M650,320 L650,360" stroke="#3F3D56" stroke-width="2"/>
        <circle cx="650" cy="360" r="5" fill="#3F3D56"/>
    </g>
</svg>
